<svg width="31" height="31" viewBox="0 0 31 31" fill="none" xmlns="http://www.w3.org/2000/svg">
<path d="M28.4386 7.53569L27.125 6.64971V1.94212C27.125 1.58566 26.8357 1.29636 26.4792 1.29636C26.1227 1.29636 25.8333 1.58566 25.8333 1.94212V5.77793L18.7524 1.0006C16.7775 -0.333535 14.2225 -0.333535 12.2502 1.0006L2.56137 7.53569C0.957125 8.61798 0 10.4184 0 12.3518V25.1882C0 28.3924 2.60787 31 5.8125 31H25.1875C28.3921 31 31 28.3924 31 25.1882V12.3531C31 10.4196 30.0429 8.61669 28.4386 7.53569ZM29.7083 25.1895C29.7083 27.6821 27.6804 29.7098 25.1875 29.7098H5.8125C3.31958 29.7098 1.29167 27.6821 1.29167 25.1895V12.3531C1.29167 10.8484 2.03567 9.44843 3.28342 8.60636L12.9722 2.06998C13.7395 1.55208 14.6191 1.2912 15.5 1.2912C16.3809 1.2912 17.2605 1.55079 18.0291 2.06998L27.7166 8.60636C28.9643 9.44843 29.7083 10.8484 29.7083 12.3531V25.1895Z" fill="white" fill-opacity="0.5"/>
</svg>
