<svg width="35" height="35" viewBox="0 0 35 35" fill="none" xmlns="http://www.w3.org/2000/svg">
<path d="M14.0038 14.0023C12.8047 15.2003 12.2218 16.3505 12.2218 17.5151C12.2218 19.0377 13.2383 20.2294 14.0038 20.9946C15.1791 22.1703 16.3385 22.7574 17.4979 22.7574C18.6573 22.7574 19.8167 22.1688 20.992 20.9946C22.1911 19.7966 22.774 18.6463 22.774 17.4817C22.774 15.9592 21.7576 14.7675 20.992 14.0023C18.6414 11.6508 16.3544 11.6508 14.0038 14.0023ZM19.8707 19.8698C17.8839 21.8553 16.6276 21.3717 15.1251 19.8698C14.2277 18.9725 13.81 18.2247 13.81 17.5167C13.81 16.7944 14.2404 16.0148 15.1251 15.1303C16.051 14.2043 16.8166 13.8161 17.5249 13.8161C18.3365 13.8161 19.0687 14.3284 19.8723 15.1303C20.7697 16.0276 21.1874 16.7753 21.1874 17.4833C21.1874 18.2056 20.7554 18.9852 19.8707 19.8698Z" fill="white"/>
<path d="M34.9984 17.4165C35.0111 14.8789 33.7008 13.4692 30.9945 13.1208C30.6959 12.494 30.3322 11.8687 29.8922 11.2307C31.8061 8.91427 31.814 6.94463 29.9335 5.06409C28.0547 3.18514 26.0821 3.19469 23.7648 5.11023C23.128 4.6743 22.5038 4.31315 21.878 4.01564C21.5334 1.30142 20.077 0 17.5818 0C15.0375 0.0127279 13.6192 1.35074 13.2539 4.08723C12.6313 4.38793 11.9976 4.75703 11.3639 5.1866C9.05938 3.28219 7.0852 3.28697 5.18568 5.1866C3.31474 7.056 3.31156 9.08132 5.18409 11.3628C4.7505 11.9992 4.38044 12.6324 4.07868 13.2545C1.3485 13.6188 0.0127974 15.0395 9.15108e-05 17.5835C-0.0126144 20.1211 1.29768 21.5308 4.00403 21.8792C4.30262 22.506 4.66632 23.1313 5.10626 23.7693C3.19244 26.0857 3.1845 28.0554 5.06497 29.9359C6.94544 31.8164 8.91644 31.8069 11.2337 29.8898C11.8706 30.3257 12.4947 30.6868 13.1205 30.9844C13.4635 33.6843 14.8882 35 17.3801 35C19.9292 35 21.3809 33.6493 21.7462 30.9128C22.3688 30.6121 23.0025 30.243 23.6362 29.8134C25.9407 31.7178 27.9149 31.7114 29.8144 29.8134C31.6854 27.944 31.6885 25.9187 29.816 23.6372C30.2496 23.0008 30.6196 22.3676 30.9214 21.7455C33.6516 21.3812 34.9873 19.9605 35 17.4165H34.9984ZM29.6619 20.6828C29.3014 21.5021 28.7979 22.3549 28.1658 23.2188C27.9403 23.5258 27.9641 23.949 28.223 24.2291C30.4037 26.5948 29.6492 27.7292 28.6915 28.687C27.6909 29.6861 26.5935 30.4021 24.2254 28.2176C23.9475 27.9599 23.5266 27.9376 23.2185 28.1604C22.3592 28.7888 21.508 29.29 20.6852 29.6511C20.42 29.7673 20.2374 30.0202 20.2135 30.3114C19.9928 32.8808 18.9763 33.4011 17.4087 33.409C15.8078 33.3661 14.8533 32.9254 14.6547 30.3862C14.6309 30.0902 14.4467 29.8325 14.1751 29.7164C13.3476 29.3632 12.5217 28.8795 11.653 28.2383C11.5116 28.1349 11.3464 28.084 11.1828 28.084C10.9891 28.084 10.7969 28.154 10.646 28.294C8.25891 30.4943 7.13444 29.7561 6.18785 28.8095C5.24285 27.8644 4.50432 26.7428 6.70085 24.3595C6.95973 24.0779 6.98356 23.6531 6.75644 23.3461C6.12114 22.4853 5.61926 21.6358 5.26826 20.8196C5.15232 20.5491 4.89662 20.3646 4.60279 20.3407C2.08227 20.1402 1.58038 19.1395 1.58833 17.5899C1.59627 16.0244 2.11721 15.0093 4.67903 14.7882C4.96809 14.7627 5.22062 14.5829 5.33815 14.3172C5.69867 13.4979 6.20214 12.6451 6.83426 11.7812C7.05979 11.4742 7.03597 11.051 6.77708 10.7709C4.59644 8.40515 5.35085 7.27078 6.30856 6.31301C7.27103 5.35206 8.40661 4.59475 10.7747 6.78235C11.0542 7.04168 11.4751 7.06555 11.7816 6.83963C12.6408 6.21119 13.4921 5.71003 14.3148 5.34888C14.5801 5.23274 14.7627 4.97977 14.7865 4.68862C15.0073 2.11919 16.0238 1.59894 17.5914 1.59098C19.1637 1.54802 20.1453 2.07464 20.3454 4.61385C20.3692 4.90977 20.5534 5.16751 20.825 5.28365C21.6525 5.63685 22.4784 6.12051 23.3471 6.76167C23.6537 6.98759 24.0745 6.96373 24.3557 6.70599C26.7444 4.50725 27.8688 5.24547 28.8138 6.19051C29.7588 7.13555 30.4974 8.25719 28.3008 10.6405C28.0419 10.9221 28.0181 11.3469 28.2452 11.6539C28.8805 12.5147 29.3824 13.3642 29.7334 14.1804C29.8494 14.4509 30.1051 14.6354 30.3989 14.6593C32.9194 14.8598 33.4213 15.8605 33.4134 17.4101C33.4054 18.9756 32.8845 19.9907 30.3227 20.2118C30.0336 20.2373 29.7795 20.4171 29.6619 20.6828Z" fill="white"/>
</svg>
